<mxfile host="app.diagrams.net" modified="2024-04-08T09:13:22.933Z" agent="Mozilla/5.0 (X11; Linux x86_64) AppleWebKit/537.36 (KHTML, like Gecko) Chrome/123.0.0.0 Safari/537.36" etag="CqCZTxRW0k6p_aHAbVuz" version="24.2.0" type="github">
  <diagram name="第 1 页" id="809RYmrtKWQqntSpSi6K">
    <mxGraphModel dx="1383" dy="759" grid="1" gridSize="10" guides="1" tooltips="1" connect="1" arrows="1" fold="1" page="1" pageScale="1" pageWidth="850" pageHeight="1100" math="0" shadow="0">
      <root>
        <mxCell id="0" />
        <mxCell id="1" parent="0" />
        <mxCell id="1-Ru4sR9WQq5cSvnAjK9-3" value="" style="edgeStyle=orthogonalEdgeStyle;rounded=0;orthogonalLoop=1;jettySize=auto;html=1;" edge="1" parent="1" source="1-Ru4sR9WQq5cSvnAjK9-1" target="1-Ru4sR9WQq5cSvnAjK9-2">
          <mxGeometry relative="1" as="geometry" />
        </mxCell>
        <mxCell id="1-Ru4sR9WQq5cSvnAjK9-1" value="开始" style="rounded=1;whiteSpace=wrap;html=1;" vertex="1" parent="1">
          <mxGeometry x="380" width="75" height="30" as="geometry" />
        </mxCell>
        <mxCell id="1-Ru4sR9WQq5cSvnAjK9-2" value="获取地图，激光数据、odom和imu数据" style="rounded=0;whiteSpace=wrap;html=1;" vertex="1" parent="1">
          <mxGeometry x="356.25" y="60" width="122.5" height="40" as="geometry" />
        </mxCell>
      </root>
    </mxGraphModel>
  </diagram>
</mxfile>
